<svg width="10" height="10" viewBox="0 0 10 10" fill="none" xmlns="http://www.w3.org/2000/svg">
<path d="M5.44204 0.258723C5.26905 -0.086241 4.73106 -0.086241 4.55806 0.258723L0.0581347 9.22568C0.0177798 9.30607 -0.0021817 9.3961 0.000189047 9.48703C0.00255979 9.57797 0.0271822 9.66671 0.0716648 9.74464C0.116147 9.82256 0.178978 9.88703 0.254054 9.93178C0.32913 9.97652 0.413899 10 0.500127 10H9.49997C9.5862 10.0002 9.671 9.9768 9.74611 9.93212C9.82121 9.88744 9.88406 9.82299 9.92853 9.74506C9.97299 9.66712 9.99756 9.57836 9.99983 9.48743C10.0021 9.3965 9.98199 9.3065 9.94147 9.2262L5.44204 0.258723ZM5.50004 8.4176H4.50006V7.36266H5.50004V8.4176ZM4.50006 6.30772V3.67038H5.50004L5.50054 6.30772H4.50006Z" fill="#FD5668"/>
</svg>
